<?xml version="1.0" encoding="utf-8"?>
<!-- Generator: Adobe Illustrator 16.0.4, SVG Export Plug-In . SVG Version: 6.00 Build 0)  -->
<!DOCTYPE svg PUBLIC "-//W3C//DTD SVG 1.1//EN" "http://www.w3.org/Graphics/SVG/1.1/DTD/svg11.dtd">
<svg version="1.1" id="Layer_1" xmlns="http://www.w3.org/2000/svg" xmlns:xlink="http://www.w3.org/1999/xlink" x="0px" y="0px"
	 width="422.758px" height="34.746px" viewBox="0 0 422.758 34.746" enable-background="new 0 0 422.758 34.746"
	 xml:space="preserve">
<g>
	<path d="M108.613,15.756c0,2.101,0.033,4.205-0.025,6.305c-0.013,0.414-0.261,0.975-0.584,1.201
		c-0.735,0.516-1.708-0.06-1.714-0.966c-0.018-3.487-0.006-6.973-0.008-10.458c0-0.571,0.206-1.02,0.786-1.179
		c0.622-0.171,1.096,0.079,1.463,0.598c1.509,2.14,3.027,4.275,4.546,6.411c0.232,0.327,0.472,0.646,0.829,1.135
		c0.034-0.402,0.068-0.621,0.071-0.842c0.006-1.999,0-3.999,0.014-5.998c0.006-0.929,0.361-1.344,1.122-1.35
		c0.783-0.006,1.194,0.459,1.194,1.387c0.003,3.35-0.008,6.701,0.007,10.051c0.003,0.592-0.112,1.102-0.719,1.307
		c-0.646,0.213-1.157-0.031-1.556-0.568c-1.508-2.041-3.018-4.082-4.525-6.121c-0.239-0.321-0.479-0.64-0.719-0.959
		C108.738,15.725,108.675,15.741,108.613,15.756z"/>
	<path d="M121.513,12.719c-0.021,0.259-0.04,0.416-0.04,0.573c-0.007,0.808-0.003,1.616-0.003,2.562c1.025,0,2.013-0.001,2.996,0
		c1.182,0.001,1.699,0.309,1.723,1.02c0.023,0.75-0.485,1.062-1.73,1.062c-0.964,0.002-1.93,0.002-2.938,0.002
		c0,1.162,0,2.229,0,3.399c0.303,0,0.59,0,0.877,0c1.562,0.002,3.133-0.01,4.697,0.011c0.615,0.008,1.027,0.317,1.047,0.983
		c0.019,0.64-0.289,1.067-0.942,1.073c-2.349,0.021-4.698,0.027-7.046-0.006c-0.666-0.008-1.027-0.463-1.029-1.123
		c-0.01-3.481-0.011-6.964,0.006-10.447c0.003-0.831,0.365-1.2,1.189-1.208c2.238-0.023,4.479-0.013,6.722-0.008
		c0.661,0.001,1.081,0.299,1.104,1.008c0.02,0.682-0.348,1.07-1.123,1.085c-1.457,0.03-2.916,0.01-4.373,0.012
		C122.296,12.719,121.949,12.719,121.513,12.719z"/>
	<path d="M94.194,23.412c-1.292,0.031-1.764-0.711-1.35-1.727c0.61-1.496,1.266-2.976,1.897-4.462
		c0.78-1.835,1.561-3.672,2.336-5.508c0.255-0.603,0.594-1.088,1.344-1.1c0.769-0.012,1.17,0.428,1.443,1.076
		c1.378,3.253,2.766,6.5,4.143,9.752c0.391,0.92,0.262,1.504-0.372,1.83c-0.646,0.332-1.319,0.143-1.673-0.48
		c-0.093-0.162-0.146-0.346-0.22-0.521c-0.689-1.74-0.688-1.74-2.521-1.74c-0.918,0-1.841,0.029-2.757-0.01
		c-0.521-0.021-0.781,0.166-0.932,0.656c-0.156,0.512-0.333,1.036-0.609,1.493C94.716,23.021,94.337,23.27,94.194,23.412z
		 M100.285,18.566c-0.615-1.554-1.202-3.037-1.854-4.689c-0.66,1.674-1.24,3.152-1.848,4.689
		C97.894,18.566,99.039,18.566,100.285,18.566z"/>
	<path d="M73.919,19.562c0,0.842,0.01,1.647-0.002,2.451c-0.011,0.938-0.414,1.407-1.18,1.405c-0.774-0.006-1.171-0.453-1.174-1.418
		c-0.015-3.345-0.016-6.689,0.002-10.033c0.004-0.993,0.392-1.354,1.39-1.358c1.294-0.006,2.59-0.029,3.883,0.036
		c2.379,0.119,4.056,1.733,4.153,3.927c0.125,2.731-1.142,4.421-3.708,4.804C76.224,19.535,75.137,19.501,73.919,19.562z
		 M73.976,12.727c0,1.612,0,3.11,0,4.605c0.965,0,1.886,0.094,2.778-0.021c1.317-0.168,1.885-1.025,1.825-2.501
		c-0.046-1.192-0.81-1.998-2.048-2.074C75.704,12.685,74.867,12.727,73.976,12.727z"/>
	<path d="M9.685,17.291c-0.282,3.135,2.541,5.428,5.621,4.605c0.76-0.203,1.457-0.668,2.151-1.062
		c0.432-0.246,0.836-0.641,1.273-0.119c0.425,0.502,0.156,0.936-0.271,1.318c-1.792,1.607-5.041,2.057-7.231,0.99
		c-2.153-1.049-3.502-3.535-3.315-6.11c0.228-3.11,1.885-5.306,4.543-6.015c3.337-0.89,6.632,1.32,6.966,4.673
		c0.136,1.349-0.188,1.72-1.511,1.72c-2.457,0.003-4.912,0-7.37,0.002C10.254,17.291,9.965,17.291,9.685,17.291z M9.694,16.128
		c2.712,0,5.368,0,8.019,0c0.181-1.951-1.333-3.608-3.466-3.851C12.04,12.026,10.052,13.673,9.694,16.128z"/>
	<path d="M133.387,12.719c-0.979,0-1.839,0.007-2.694-0.002c-1.031-0.012-1.482-0.354-1.471-1.089
		c0.011-0.715,0.419-1.017,1.431-1.019c2.591-0.005,5.181-0.005,7.77,0c1.062,0.002,1.521,0.322,1.523,1.03
		c0.004,0.728-0.499,1.072-1.576,1.081c-0.782,0.004-1.562,0.007-2.347,0.014c-0.049,0-0.102,0.028-0.259,0.078
		c0,0.252,0,0.538,0,0.824c0,2.778,0.005,5.557-0.006,8.336c0,1.004-0.485,1.521-1.308,1.442c-0.707-0.065-1.061-0.53-1.062-1.449
		c-0.008-2.723-0.001-5.448-0.001-8.173C133.387,13.472,133.387,13.152,133.387,12.719z"/>
	<path d="M22.594,15.585c0-1.187,0.011-2.375-0.006-3.562c-0.008-0.595,0.177-1.056,0.833-1.04c0.648,0.015,0.811,0.475,0.805,1.071
		c-0.021,2.05-0.018,4.101,0,6.152c0.004,0.51,0.038,1.03,0.152,1.522c0.363,1.543,1.604,2.414,3.237,2.332
		c1.614-0.08,2.847-1.096,2.938-2.677c0.12-2.206,0.068-4.421,0.09-6.633c0.003-0.27,0-0.539-0.001-0.809
		c-0.002-0.571,0.24-0.967,0.843-0.961c0.585,0.006,0.849,0.369,0.844,0.958c-0.011,1.43,0.012,2.86-0.009,4.291
		c-0.017,1.211,0.043,2.44-0.146,3.629c-0.396,2.517-2.326,3.861-5.13,3.726c-2.483-0.119-4.234-1.741-4.403-4.196
		c-0.088-1.263-0.018-2.535-0.018-3.803C22.615,15.585,22.604,15.585,22.594,15.585z"/>
	<path d="M85.505,21.337c1.511,0,2.907,0,4.309,0c0.27,0,0.54-0.01,0.809,0.013c0.629,0.053,1.01,0.405,1.006,1.039
		c-0.003,0.639-0.4,1.01-1.023,1.018c-2.131,0.021-4.266,0.029-6.396-0.002c-0.751-0.012-1.077-0.488-1.079-1.418
		c-0.005-2.992-0.001-5.988-0.001-8.982c0-0.324-0.006-0.648,0-0.971c0.021-0.944,0.407-1.409,1.18-1.416
		c0.772-0.007,1.189,0.463,1.193,1.394c0.008,2.778,0.003,5.556,0.003,8.336C85.505,20.641,85.505,20.932,85.505,21.337z"/>
	<path d="M57.186,21.123c-1.911-0.016-3.442-1.559-3.435-3.459c0.012-1.928,1.598-3.477,3.533-3.451
		c1.874,0.026,3.406,1.615,3.387,3.511C60.653,19.619,59.093,21.139,57.186,21.123z"/>
	<path d="M57.832,7.53c4.857,0.347,8.467,3.56,9.443,8.478c0.061,0.308,0.256,0.625,0.473,0.86c0.462,0.505,0.518,1.022,0.076,1.516
		c-0.417,0.468-0.956,0.474-1.454,0.101c-0.463-0.348-0.452-0.996-0.126-1.533c0.186-0.302,0.33-0.729,0.271-1.06
		c-0.834-4.654-5.245-8.042-9.961-7.691c-4.77,0.355-8.625,4.287-8.823,8.995c-0.202,4.852,3.24,9.105,7.956,9.834
		c0.373,0.059,0.755,0.07,1.122,0.152c0.142,0.03,0.255,0.192,0.381,0.295c-0.145,0.114-0.291,0.336-0.427,0.328
		c-0.617-0.031-1.243-0.074-1.846-0.207c-5.007-1.113-8.25-5.705-7.819-11.042c0.382-4.75,4.513-8.719,9.398-9.021
		C56.899,7.508,57.302,7.53,57.832,7.53z"/>
	<path d="M57.162,30.671c0.111,0.408,0.042,0.608-0.494,0.597c-7.527-0.189-13.689-7.064-13.006-14.532
		c0.621-6.78,5.243-11.63,11.967-12.586c0.253-0.036,0.509-0.234,0.707-0.416c0.492-0.447,0.993-0.535,1.521-0.101
		c0.471,0.389,0.513,1.076,0.073,1.508c-0.481,0.472-0.992,0.392-1.537,0.042c-0.258-0.164-0.611-0.303-0.9-0.269
		C49.423,5.65,44.553,10.903,44.325,16.93c-0.245,6.45,4.004,12.058,10.117,13.327C55.311,30.438,56.198,30.527,57.162,30.671z"/>
	<path d="M57.14,24.518c-2.931,0.088-5.651-1.972-6.528-4.904c-0.883-2.95,0.362-6.196,2.991-7.803
		c2.837-1.735,6.485-1.215,8.716,1.238c2.208,2.43,2.376,6.058,0.442,8.739c-0.23,0.318-0.34,0.754-0.416,1.15
		c-0.123,0.635-0.48,0.977-1.104,0.955c-0.588-0.021-0.957-0.383-0.996-0.972c-0.042-0.629,0.281-1.125,0.915-1.09
		c0.646,0.032,0.914-0.308,1.206-0.742c1.395-2.065,1.367-4.876-0.07-6.935c-1.449-2.075-4.056-3.087-6.478-2.514
		c-2.458,0.582-4.357,2.635-4.711,5.096c-0.509,3.543,1.908,6.675,5.486,7.081C57.038,23.869,57.361,23.912,57.14,24.518z"/>
	<path d="M37.649,13.055c0.981-1.379,2.174-2.241,3.848-2.318c0.213-0.01,0.479-0.065,0.631,0.035
		c0.254,0.168,0.625,0.467,0.604,0.673c-0.031,0.283-0.345,0.584-0.612,0.773c-0.167,0.12-0.472,0.035-0.713,0.065
		c-2.273,0.275-3.65,1.913-3.694,4.454c-0.03,1.808-0.016,3.615-0.001,5.425c0.005,0.617-0.045,1.184-0.847,1.172
		c-0.81-0.012-0.82-0.604-0.818-1.207c0.007-3.316,0.009-6.638-0.002-9.957c-0.002-0.611,0.031-1.204,0.828-1.19
		c0.819,0.013,0.79,0.648,0.777,1.234C37.644,12.496,37.649,12.775,37.649,13.055z"/>
</g>
<g>
	<path fill="#04525D" d="M203.346,28.432h-0.011c-0.146,0.311-0.337,0.453-0.729,0.453c-0.729,0-0.991-0.541-0.991-1.736
		c0-1.191,0.337-1.732,1.109-1.732c0.836,0,0.977,0.658,0.977,0.963v0.061h-0.505v-0.08c0-0.248-0.103-0.541-0.468-0.541
		c-0.379,0-0.58,0.252-0.58,1.318c0,1.075,0.178,1.346,0.538,1.346c0.405,0.006,0.557-0.289,0.557-1.021h-0.562v-0.399h1.065v1.758
		h-0.401V28.432z"/>
	<path fill="#04525D" d="M204.611,27.626v0.146c0,0.336,0.043,0.77,0.421,0.77c0.36,0,0.403-0.412,0.403-0.562h0.477
		c0,0.56-0.337,0.906-0.884,0.906c-0.412,0-0.922-0.119-0.922-1.285c0-0.658,0.141-1.361,0.931-1.361
		c0.701,0,0.889,0.423,0.889,1.123v0.269h-1.313L204.611,27.626L204.611,27.626z M205.419,27.279v-0.135
		c0-0.318-0.103-0.562-0.388-0.562c-0.322,0-0.421,0.318-0.421,0.646v0.051H205.419z"/>
	<path fill="#04525D" d="M207.147,26.236c0.732,0,0.938,0.543,0.938,1.324c0,0.78-0.236,1.323-0.938,1.323
		c-0.697,0-0.937-0.543-0.937-1.323C206.211,26.779,206.417,26.236,207.147,26.236 M207.147,28.512c0.37,0,0.435-0.31,0.435-0.951
		c0-0.558-0.062-0.949-0.435-0.949c-0.364,0-0.433,0.395-0.433,0.949C206.716,28.203,206.782,28.512,207.147,28.512"/>
	<rect x="208.459" y="25.479" fill="#04525D" width="0.506" height="3.34"/>
	<path fill="#04525D" d="M210.269,26.236c0.731,0,0.938,0.543,0.938,1.324c0,0.78-0.236,1.323-0.938,1.323
		c-0.697,0-0.938-0.543-0.938-1.323C209.332,26.779,209.538,26.236,210.269,26.236 M210.269,28.512c0.369,0,0.435-0.31,0.435-0.951
		c0-0.558-0.063-0.949-0.435-0.949c-0.365,0-0.433,0.395-0.433,0.949C209.838,28.203,209.904,28.512,210.269,28.512"/>
	<path fill="#04525D" d="M212.053,29.033c0,0.154,0.14,0.301,0.363,0.301c0.264,0,0.425-0.184,0.425-0.475v-0.406h-0.009
		c-0.095,0.221-0.327,0.348-0.569,0.348c-0.591,0-0.752-0.578-0.752-1.27c0-0.551,0.082-1.295,0.8-1.295
		c0.294,0,0.504,0.191,0.551,0.375h0.01v-0.309h0.479v2.393c0,0.613-0.264,0.982-0.94,0.982c-0.749,0-0.833-0.438-0.833-0.646
		L212.053,29.033L212.053,29.033z M212.408,28.398c0.396,0,0.435-0.496,0.435-0.896c0-0.412-0.052-0.864-0.4-0.864
		c-0.364,0-0.426,0.375-0.426,0.842C212.015,27.912,212.034,28.398,212.408,28.398"/>
	<path fill="#04525D" d="M213.787,25.441h0.505v0.506h-0.505V25.441z M213.787,26.303h0.505v2.516h-0.505V26.303z"/>
	<path fill="#04525D" d="M216.461,27.902c-0.03,0.602-0.236,0.981-0.858,0.981c-0.729,0-0.937-0.543-0.937-1.323
		c0-0.781,0.205-1.324,0.937-1.324c0.753-0.01,0.863,0.59,0.863,0.902h-0.505c0-0.232-0.063-0.537-0.358-0.527
		c-0.364,0-0.433,0.393-0.433,0.949c0,0.556,0.066,0.951,0.433,0.951c0.279,0.004,0.384-0.23,0.384-0.609H216.461z"/>
	<polygon fill="#04525D" points="217.994,25.479 218.827,25.479 219.417,27.953 219.426,27.953 220.007,25.479 220.82,25.479 
		220.82,28.818 220.315,28.818 220.315,26.041 220.306,26.041 219.632,28.818 219.183,28.818 218.509,26.041 218.5,26.041 
		218.5,28.818 217.994,28.818 	"/>
	<path fill="#04525D" d="M222.968,28.294c0,0.095,0.059,0.179,0.133,0.179c0.031,0,0.063-0.007,0.084-0.015v0.328
		c-0.062,0.026-0.15,0.06-0.247,0.06c-0.227,0-0.412-0.089-0.426-0.33h-0.011c-0.137,0.248-0.332,0.369-0.628,0.369
		c-0.399,0-0.652-0.226-0.652-0.705c0-0.562,0.24-0.681,0.584-0.791l0.394-0.109c0.182-0.051,0.294-0.102,0.294-0.32
		c0-0.229-0.079-0.375-0.346-0.375c-0.336,0-0.384,0.238-0.384,0.48h-0.479c0-0.533,0.221-0.828,0.886-0.828
		c0.443,0,0.8,0.176,0.8,0.617L222.968,28.294L222.968,28.294z M222.49,27.49c-0.13,0.104-0.41,0.162-0.561,0.234
		c-0.146,0.069-0.205,0.219-0.205,0.405c0,0.209,0.103,0.377,0.312,0.377c0.305,0,0.453-0.228,0.453-0.596L222.49,27.49
		L222.49,27.49z"/>
	<path fill="#04525D" d="M223.461,26.303h0.479v0.309h0.009c0.104-0.225,0.29-0.375,0.566-0.375c0.573,0,0.809,0.492,0.809,1.357
		c0,1.057-0.43,1.291-0.776,1.291c-0.271,0-0.478-0.136-0.568-0.361h-0.012v1.119h-0.505L223.461,26.303L223.461,26.303z
		 M224.368,28.48c0.29,0,0.422-0.215,0.422-0.91c0-0.57-0.075-0.932-0.426-0.932c-0.347,0-0.426,0.354-0.426,0.893
		C223.939,28.137,224.013,28.48,224.368,28.48"/>
	<path fill="#04525D" d="M225.687,26.303h0.476v0.309h0.01c0.104-0.225,0.291-0.375,0.566-0.375c0.574,0,0.809,0.492,0.809,1.357
		c0,1.057-0.431,1.291-0.774,1.291c-0.271,0-0.479-0.136-0.57-0.361h-0.01v1.119h-0.504L225.687,26.303L225.687,26.303z
		 M226.593,28.48c0.29,0,0.423-0.215,0.423-0.91c0-0.57-0.075-0.932-0.428-0.932c-0.346,0-0.426,0.354-0.426,0.893
		C226.162,28.137,226.238,28.48,226.593,28.48"/>
	<path fill="#04525D" d="M227.926,25.441h0.507v0.506h-0.507V25.441z M227.926,26.303h0.507v2.516h-0.507V26.303z"/>
	<path fill="#04525D" d="M228.883,26.303h0.479v0.295h0.015c0.126-0.226,0.365-0.361,0.646-0.361c0.384,0,0.626,0.176,0.626,0.686
		v1.896h-0.504v-1.725c0-0.328-0.1-0.455-0.354-0.455c-0.206,0-0.399,0.164-0.399,0.491v1.688h-0.508L228.883,26.303L228.883,26.303
		z"/>
	<path fill="#04525D" d="M231.575,29.033c0,0.154,0.142,0.301,0.366,0.301c0.262,0,0.425-0.184,0.425-0.475v-0.406h-0.01
		c-0.094,0.221-0.327,0.348-0.569,0.348c-0.59,0-0.754-0.578-0.754-1.27c0-0.551,0.084-1.295,0.8-1.295
		c0.295,0,0.505,0.191,0.555,0.375h0.009v-0.309h0.477v2.393c0,0.613-0.261,0.982-0.938,0.982c-0.749,0-0.834-0.438-0.834-0.646
		L231.575,29.033L231.575,29.033z M231.933,28.398c0.392,0,0.434-0.496,0.434-0.896c0-0.412-0.051-0.864-0.401-0.864
		c-0.363,0-0.426,0.375-0.426,0.842C231.539,27.912,231.558,28.398,231.933,28.398"/>
	<path fill="#04525D" d="M235.28,26.236c0.734,0,0.939,0.543,0.939,1.324c0,0.78-0.237,1.323-0.939,1.323
		c-0.697,0-0.936-0.543-0.936-1.323C234.344,26.779,234.55,26.236,235.28,26.236 M235.28,28.512c0.37,0,0.436-0.31,0.436-0.951
		c0-0.558-0.063-0.949-0.436-0.949c-0.365,0-0.431,0.395-0.431,0.949C234.849,28.203,234.914,28.512,235.28,28.512"/>
	<path fill="#04525D" d="M236.726,26.676h-0.353v-0.373h0.353v-0.234c0-0.478,0.229-0.627,0.641-0.627
		c0.107,0,0.2,0.004,0.276,0.016v0.391h-0.143c-0.187,0-0.271,0.068-0.271,0.236v0.221h0.411v0.373h-0.411v2.143h-0.506
		L236.726,26.676L236.726,26.676z"/>
	<path fill="#04525D" d="M239.83,26.236c0.735,0,0.94,0.543,0.94,1.324c0,0.78-0.239,1.323-0.94,1.323
		c-0.696,0-0.936-0.543-0.936-1.323C238.895,26.779,239.101,26.236,239.83,26.236 M239.83,28.512c0.37,0,0.437-0.31,0.437-0.951
		c0-0.558-0.064-0.949-0.437-0.949c-0.364,0-0.431,0.395-0.431,0.949C239.4,28.203,239.466,28.512,239.83,28.512"/>
	<path fill="#04525D" d="M242.407,28.523h-0.014c-0.127,0.227-0.364,0.36-0.646,0.36c-0.374,0-0.627-0.174-0.627-0.823v-1.758h0.506
		v1.805c0,0.281,0.125,0.373,0.341,0.373c0.217,0,0.412-0.14,0.412-0.42v-1.758h0.505v2.516h-0.478L242.407,28.523L242.407,28.523z"
		/>
	<path fill="#04525D" d="M243.33,26.303h0.506v0.393h0.011c0.11-0.279,0.299-0.459,0.585-0.459c0.056,0,0.089,0.012,0.121,0.021
		v0.514c-0.038-0.008-0.129-0.026-0.213-0.026c-0.229,0-0.504,0.104-0.504,0.569v1.506h-0.506V26.303z"/>
	<path fill="#04525D" d="M246.369,27.785v0.084c0,0.406,0.179,0.611,0.548,0.611c0.336,0,0.505-0.236,0.505-0.484
		c0-0.352-0.177-0.506-0.477-0.596l-0.365-0.125c-0.484-0.188-0.696-0.439-0.696-0.918c0-0.607,0.41-0.943,1.038-0.943
		c0.856,0,0.945,0.533,0.945,0.879v0.074h-0.534v-0.068c0-0.305-0.136-0.48-0.468-0.48c-0.229,0-0.448,0.127-0.448,0.48
		c0,0.285,0.146,0.432,0.5,0.564l0.36,0.131c0.472,0.168,0.679,0.426,0.679,0.885c0,0.711-0.431,1.004-1.104,1.004
		c-0.828,0-1.018-0.551-1.018-1.018v-0.08H246.369z"/>
	<path fill="#04525D" d="M249.189,26.236c0.733,0,0.939,0.543,0.939,1.324c0,0.78-0.236,1.323-0.939,1.323
		c-0.696,0-0.936-0.543-0.936-1.323C248.254,26.779,248.46,26.236,249.189,26.236 M249.189,28.512c0.371,0,0.437-0.31,0.437-0.951
		c0-0.558-0.063-0.949-0.437-0.949c-0.364,0-0.432,0.395-0.432,0.949C248.759,28.203,248.824,28.512,249.189,28.512"/>
	<rect x="250.502" y="25.479" fill="#04525D" width="0.505" height="3.34"/>
	<path fill="#04525D" d="M253.118,28.294c0,0.095,0.056,0.179,0.132,0.179c0.032,0,0.064-0.007,0.083-0.015v0.328
		c-0.061,0.026-0.146,0.06-0.247,0.06c-0.225,0-0.412-0.089-0.426-0.33h-0.009c-0.137,0.248-0.332,0.369-0.628,0.369
		c-0.401,0-0.654-0.226-0.654-0.705c0-0.562,0.242-0.681,0.584-0.791l0.396-0.109c0.182-0.051,0.295-0.102,0.295-0.32
		c0-0.229-0.079-0.375-0.349-0.375c-0.336,0-0.384,0.238-0.384,0.48h-0.478c0-0.533,0.221-0.828,0.886-0.828
		c0.443,0,0.799,0.176,0.799,0.617V28.294z M252.642,27.49c-0.131,0.104-0.411,0.162-0.562,0.234
		c-0.146,0.069-0.205,0.219-0.205,0.405c0,0.209,0.104,0.377,0.312,0.377c0.305,0,0.454-0.228,0.454-0.596L252.642,27.49
		L252.642,27.49z"/>
	<path fill="#04525D" d="M253.61,26.303h0.506v0.393h0.009c0.113-0.279,0.301-0.459,0.585-0.459c0.059,0,0.089,0.012,0.123,0.021
		v0.514c-0.038-0.008-0.127-0.026-0.212-0.026c-0.229,0-0.505,0.104-0.505,0.569v1.506h-0.506V26.303z"/>
	<path fill="#04525D" d="M256.65,27.785v0.084c0,0.406,0.178,0.611,0.547,0.611c0.337,0,0.506-0.236,0.506-0.484
		c0-0.352-0.178-0.506-0.477-0.596l-0.366-0.125c-0.485-0.188-0.696-0.439-0.696-0.918c0-0.607,0.412-0.943,1.038-0.943
		c0.856,0,0.945,0.533,0.945,0.879v0.074h-0.533v-0.068c0-0.305-0.135-0.48-0.468-0.48c-0.229,0-0.448,0.127-0.448,0.48
		c0,0.285,0.146,0.432,0.499,0.564l0.36,0.131c0.473,0.168,0.679,0.426,0.679,0.885c0,0.711-0.43,1.004-1.104,1.004
		c-0.825,0-1.014-0.551-1.014-1.018v-0.08H256.65z"/>
	<path fill="#04525D" d="M258.982,26.303l0.436,1.891h0.012l0.4-1.891h0.527l-0.691,2.608c-0.195,0.688-0.358,0.776-0.88,0.769
		c-0.062,0-0.135-0.011-0.2-0.021v-0.4c0.058,0.009,0.106,0.019,0.163,0.019c0.173,0,0.285-0.035,0.342-0.195l0.064-0.207
		l-0.715-2.57L258.982,26.303L258.982,26.303z"/>
	<path fill="#04525D" d="M261.694,27.037v-0.064c0-0.201-0.07-0.389-0.332-0.389c-0.2,0-0.36,0.094-0.36,0.326
		c0,0.197,0.09,0.275,0.355,0.369l0.323,0.113c0.374,0.125,0.547,0.326,0.547,0.725c0,0.537-0.396,0.77-0.902,0.77
		c-0.637,0-0.828-0.297-0.828-0.781V28.01h0.449v0.077c0,0.293,0.103,0.451,0.394,0.451c0.275,0,0.41-0.142,0.41-0.371
		c0-0.187-0.098-0.31-0.273-0.369l-0.412-0.146c-0.379-0.131-0.538-0.321-0.538-0.725c0-0.473,0.342-0.693,0.861-0.693
		c0.64,0,0.783,0.375,0.783,0.688v0.113L261.694,27.037L261.694,27.037z"/>
	<path fill="#04525D" d="M262.39,26.303h0.347v-0.716h0.505v0.716h0.411v0.373h-0.411v1.504c0,0.194,0.056,0.266,0.229,0.266
		c0.072,0,0.135-0.006,0.182-0.014v0.373c-0.107,0.026-0.248,0.041-0.407,0.041c-0.341,0-0.509-0.093-0.509-0.605v-1.562h-0.347
		V26.303z"/>
	<path fill="#04525D" d="M264.323,27.626v0.146c0,0.336,0.041,0.77,0.42,0.77c0.361,0,0.402-0.412,0.402-0.562h0.478
		c0,0.56-0.337,0.906-0.884,0.906c-0.412,0-0.922-0.119-0.922-1.285c0-0.658,0.14-1.361,0.93-1.361c0.703,0,0.892,0.423,0.892,1.123
		v0.269h-1.314L264.323,27.626L264.323,27.626z M265.132,27.279v-0.135c0-0.318-0.103-0.562-0.389-0.562
		c-0.322,0-0.42,0.318-0.42,0.646v0.051H265.132z"/>
	<path fill="#04525D" d="M266.026,26.303h0.477v0.295h0.017c0.126-0.226,0.363-0.361,0.603-0.361c0.36,0,0.511,0.176,0.585,0.387
		c0.146-0.244,0.333-0.387,0.636-0.387c0.355,0,0.614,0.186,0.614,0.67v1.912h-0.506v-1.725c0-0.328-0.098-0.455-0.305-0.455
		c-0.205,0-0.401,0.164-0.401,0.491v1.688h-0.505v-1.728c0-0.325-0.099-0.452-0.31-0.452c-0.2,0-0.397,0.164-0.397,0.489v1.688
		h-0.505L266.026,26.303L266.026,26.303z"/>
	<path fill="#04525D" d="M198.463,21.414l0.493-0.049c0.303-0.031,0.366-0.127,0.366-0.51v-6.893l-0.844-0.063v-1.561h4.793
		c2.48,0,4.011,1.163,4.011,3.359c0,2.468-1.814,3.708-4.346,3.708h-0.876v1.896l1.447,0.062v1.561h-5.047L198.463,21.414
		L198.463,21.414z M202.745,17.576c1.035,0,1.72-0.445,1.72-1.703c0-1.306-0.589-1.655-1.702-1.655h-0.7v3.358H202.745z"/>
	<path fill="#04525D" d="M209.001,13.947l-0.858-0.063V12.34h4.615v1.497l-0.618,0.064c-0.287,0.032-0.398,0.127-0.398,0.493v6.734
		h1.927c0.304-0.017,0.414-0.097,0.414-0.431V19.63l2.005,0.144v3.152h-7.976v-1.527l0.509-0.047
		c0.303-0.033,0.383-0.129,0.383-0.511L209.001,13.947L209.001,13.947z"/>
	<path fill="#04525D" d="M216.77,22.925v-1.512l0.414-0.05c0.316-0.03,0.429-0.19,0.522-0.461l2.277-6.924l-0.844-0.08v-1.561h4.408
		l3.138,8.947l0.778,0.079v1.562h-4.506v-1.512l0.494-0.05c0.302-0.03,0.318-0.223,0.238-0.461l-0.225-0.684h-2.978l-0.365,1.1
		l0.795,0.048v1.56L216.77,22.925L216.77,22.925z M220.829,18.5h2.311l-1.102-3.725h-0.078L220.829,18.5z"/>
	<path fill="#04525D" d="M237.799,22.925h-2.421l-3.852-6.383h-0.048v4.776l0.905,0.062v1.543h-4.346v-1.512l0.524-0.048
		c0.271-0.032,0.367-0.11,0.367-0.461v-6.958l-0.847-0.064v-1.544h3.407l3.726,6.304h0.031v-4.696l-0.907-0.064v-1.544h4.349v1.513
		l-0.526,0.047c-0.27,0.048-0.365,0.128-0.365,0.478L237.799,22.925L237.799,22.925z"/>
	<path fill="#04525D" d="M243.816,12.339l2.037,6.272h0.062l2.103-6.272h3.965v1.513l-0.494,0.048
		c-0.271,0.032-0.43,0.207-0.398,0.509l0.513,6.909l0.796,0.049v1.561h-4.156v-1.529l0.479-0.047
		c0.286-0.018,0.352-0.127,0.335-0.494l-0.239-4.488h-0.047l-1.958,5.492h-1.928l-1.895-5.38h-0.064l-0.271,4.839l0.764,0.048v1.562
		h-4.171V21.4l0.509-0.047c0.306-0.031,0.398-0.16,0.433-0.541l0.541-6.861l-0.876-0.062v-1.544h3.963v-0.006H243.816z"/>
	<path fill="#04525D" d="M252.842,22.925v-1.512l0.413-0.05c0.318-0.03,0.432-0.19,0.525-0.461l2.276-6.924l-0.845-0.08v-1.561
		h4.409l3.137,8.947l0.78,0.079v1.562h-4.506v-1.512l0.493-0.05c0.302-0.03,0.316-0.223,0.238-0.461l-0.225-0.684h-2.978l-0.365,1.1
		l0.796,0.048v1.56L252.842,22.925L252.842,22.925z M256.901,18.5h2.309l-1.099-3.725h-0.08L256.901,18.5z"/>
	<path fill="#04525D" d="M264.143,21.414l0.494-0.049c0.303-0.031,0.364-0.127,0.364-0.51v-6.893l-0.844-0.063v-1.561h4.792
		c2.483,0,4.012,1.163,4.012,3.359c0,2.468-1.812,3.708-4.346,3.708h-0.876v1.896l1.449,0.062v1.561h-5.048L264.143,21.414
		L264.143,21.414z M268.426,17.576c1.034,0,1.721-0.445,1.721-1.703c0-1.306-0.589-1.655-1.703-1.655h-0.7v3.358H268.426z"/>
	<g>
		<path fill="#BFBEBE" d="M159.211,13.467c-0.144,0.024-0.293,0.036-0.455,0.033c-0.06,0.426-0.147,0.847-0.27,1.259
			c0.143-0.045,0.27-0.103,0.381-0.173c0.273-0.173,0.404-0.387,0.425-0.692c0.004-0.065,0.001-0.142-0.011-0.234
			C159.259,13.595,159.236,13.531,159.211,13.467z"/>
		<path fill="#BFBEBE" d="M159.219,16.483c-0.026,0.011-0.056,0.021-0.082,0.03c-0.446,0.153-0.948,0.232-1.49,0.233
			c-0.379,0.659-0.838,1.27-1.369,1.818c-0.046,0.047-0.092,0.092-0.138,0.139c0.809-0.117,1.545-0.438,2.123-0.933
			C158.683,17.412,159.006,16.974,159.219,16.483z"/>
	</g>
	<g>
		<path fill="#739FC3" d="M173.808,12.566c-0.138,0.118-0.279,0.23-0.438,0.333c-0.513,0.337-1.122,0.589-1.82,0.751
			c-0.245,0.959-0.613,1.87-1.095,2.71c-0.162,0.281-0.335,0.556-0.521,0.823c1.291-0.362,2.381-1.099,3.099-2.12
			c0.135-0.191,0.248-0.392,0.351-0.598c0.015-0.037,0.029-0.069,0.043-0.106C173.647,13.728,173.767,13.129,173.808,12.566z"/>
		<path fill="#739FC3" d="M172.755,11.07c0.324-0.344,0.446-0.745,0.363-1.188c-0.02-0.104-0.057-0.218-0.115-0.359
			c-0.092-0.142-0.188-0.279-0.289-0.409c-0.24,0.137-0.538,0.235-0.884,0.297c0.002,0.078,0.006,0.155,0.007,0.234
			c0.075,0.668,0.094,1.339,0.045,2.01C172.24,11.499,172.537,11.301,172.755,11.07z"/>
	</g>
	<g>
		<g>
			<path fill="#D26A35" d="M189.942,16.682c0.104,0.449,0.19,0.91,0.256,1.384c0.255,1.896,0.147,3.633-0.118,5.123
				c1.44-1.168,2.479-2.685,2.94-4.336c0.018-0.734-0.037-1.531-0.188-2.393c-0.168-0.969-0.459-1.798-0.83-2.52
				c-0.112,0.307-0.261,0.614-0.44,0.912C191.165,15.505,190.622,16.118,189.942,16.682z"/>
			<path fill="#D26A35" d="M187.531,11.206c0.67,1.018,1.33,2.228,1.843,3.601c0.49-0.514,0.835-1.057,1.014-1.603
				c0.15-0.47,0.171-0.916,0.06-1.336c-0.651-0.608-1.369-1.073-2.087-1.421C188.156,10.706,187.882,10.96,187.531,11.206z"/>
		</g>
	</g>
	<path fill="#04525D" d="M192.384,11.404c-1.803-2.146-4.336-3.462-7.129-3.704c-0.765-0.066-1.521-0.043-2.267,0.053
		c-0.438,0.056-0.868,0.145-1.292,0.255c-1.488,0.388-2.888,1.094-4.101,2.113c-1.023,0.859-1.854,1.886-2.476,3.025
		c0.058-0.801-0.019-1.614-0.229-2.414c-0.507-1.928-1.732-3.543-3.454-4.549c-0.287-0.168-0.585-0.308-0.889-0.435
		c-0.338-0.142-0.683-0.261-1.033-0.352c-0.01,0.003-0.019,0.005-0.025,0.008c-0.005-0.007-0.01-0.013-0.015-0.021
		c-0.297-0.074-0.598-0.128-0.897-0.165c-0.926-0.112-1.871-0.055-2.799,0.188c-1.929,0.507-3.544,1.734-4.551,3.454
		c-0.646,1.109-0.99,2.338-1.021,3.587c-0.298-0.637-0.709-1.224-1.225-1.734c-0.075-0.074-0.156-0.14-0.234-0.21
		c-0.289-0.258-0.597-0.485-0.923-0.68c-0.122-0.073-0.245-0.144-0.372-0.208c-0.268-0.135-0.544-0.248-0.828-0.341
		c-0.611-0.202-1.26-0.311-1.923-0.307c-1.614,0.009-3.127,0.645-4.262,1.792c-1.136,1.146-1.755,2.667-1.747,4.28
		c0.011,1.855,0.86,3.511,2.188,4.611c0.234,0.195,0.486,0.369,0.75,0.527c0.059,0.034,0.113,0.071,0.173,0.104
		c0.311,0.174,0.637,0.318,0.978,0.434c0.624,0.217,1.29,0.338,1.986,0.332c0.675-0.004,1.322-0.117,1.928-0.326
		c2.244-0.771,3.891-2.828,4.063-5.283c0.614,1.521,1.707,2.791,3.146,3.63c0.312,0.185,0.638,0.334,0.967,0.468
		c0.542,0.221,1.103,0.379,1.672,0.467c0.994,0.151,2.02,0.104,3.021-0.157c0.801-0.212,1.549-0.546,2.22-0.988
		c0.865-0.57,1.604-1.321,2.174-2.215c-0.026,0.201-0.054,0.403-0.069,0.607c-0.242,2.793,0.615,5.513,2.422,7.66
		c1.804,2.146,4.335,3.462,7.128,3.704c0.714,0.062,1.424,0.049,2.119-0.029c0.334-0.037,0.664-0.091,0.987-0.162
		c1.659-0.354,3.219-1.107,4.555-2.229c0.892-0.75,1.639-1.623,2.227-2.592c0.827-1.361,1.336-2.904,1.479-4.539
		C195.049,16.271,194.189,13.55,192.384,11.404 M158.546,11.507c0.246,0.243,0.462,0.505,0.653,0.779c0,0.013,0.002,0.028,0,0.036
		c-0.005,0.006-0.031,0.025-0.089,0.042h-0.001c-0.175,0.05-0.458,0.029-0.796-0.044c0-0.027,0.002-0.055,0.002-0.082
		c-0.006-0.346-0.039-0.687-0.086-1.025C158.337,11.307,158.444,11.405,158.546,11.507 M158.291,12.997
		c0.381,0.071,0.729,0.082,1.001,0.003c0.021-0.006,0.037-0.012,0.058-0.017c0.086-0.03,0.15-0.068,0.212-0.108
		c0.135,0.255,0.245,0.518,0.333,0.787c0.02,0.136,0.028,0.271,0.021,0.4c-0.032,0.483-0.263,0.862-0.686,1.131
		c-0.412,0.26-0.95,0.38-1.546,0.376C158.018,14.756,158.226,13.891,158.291,12.997 M156.793,10.296
		c0.049,0.024,0.101,0.044,0.148,0.069c0.015,0.007,0.03,0.015,0.045,0.022c0.122,0.063,0.247,0.132,0.37,0.203
		c0.035,0.021,0.067,0.042,0.104,0.062c0.109,0.48,0.17,0.973,0.188,1.473c-0.589-0.21-1.258-0.537-1.882-0.97
		c-0.117-0.082-0.225-0.16-0.32-0.237c0.392-0.242,0.797-0.441,1.21-0.583C156.7,10.32,156.746,10.311,156.793,10.296
		 M157.636,12.827c-0.055,0.939-0.276,1.845-0.654,2.686c-1.108-0.169-2.33-0.706-3.328-1.538c-0.242-0.204-0.459-0.416-0.65-0.632
		c0.077-0.118,0.152-0.237,0.236-0.354c0.483-0.664,1.037-1.229,1.634-1.683c0.193,0.162,0.38,0.298,0.518,0.392
		C156.043,12.153,156.869,12.578,157.636,12.827 M154.524,9.8c0.003-0.004,0.021-0.021,0.064-0.035
		c0.009-0.003,0.017-0.005,0.023-0.007c0.004-0.001,0.009-0.001,0.014-0.002c0.41,0.021,0.823,0.088,1.229,0.199
		c-0.314,0.145-0.624,0.312-0.924,0.507C154.589,10.106,154.499,9.864,154.524,9.8 M152.06,11.175
		c0.028-0.483,0.263-0.863,0.686-1.131c0.069-0.044,0.146-0.084,0.221-0.121c0.293-0.079,0.596-0.13,0.901-0.156
		c-0.021,0.361,0.211,0.743,0.521,1.08c-0.613,0.481-1.185,1.071-1.683,1.755c-0.045,0.062-0.083,0.125-0.126,0.188
		C152.216,12.237,152.026,11.677,152.06,11.175 M149.355,15.6c0.289,0.898,0.806,1.749,1.521,2.462
		c0.024,0.022,0.052,0.045,0.075,0.069c0.009,0.274,0.038,0.544,0.078,0.808C150.121,18.08,149.504,16.913,149.355,15.6
		 M150.969,17.188c-0.821-0.988-1.262-2.191-1.217-3.372c0.032-0.848,0.312-1.635,0.804-2.292c0.182-0.245,0.39-0.472,0.628-0.675
		c0.104-0.088,0.211-0.17,0.318-0.248c-0.003,0.009-0.005,0.02-0.008,0.029c-0.05,0.159-0.084,0.325-0.097,0.501
		c-0.048,0.717,0.244,1.508,0.797,2.258C151.488,14.602,151.074,15.918,150.969,17.188 M152.65,13.929
		c0.179,0.189,0.368,0.375,0.581,0.553c1.035,0.865,2.271,1.431,3.44,1.647c-0.32,0.573-0.712,1.11-1.181,1.594
		c-0.525,0.542-1.115,0.985-1.744,1.339c-0.771-0.252-1.513-0.666-2.154-1.235C151.6,16.553,151.954,15.19,152.65,13.929
		 M152.117,19.738c-0.097-0.053-0.188-0.109-0.28-0.168c-0.079-0.273-0.145-0.555-0.184-0.848c0.407,0.297,0.842,0.541,1.292,0.735
		C152.674,19.57,152.398,19.66,152.117,19.738 M154.785,20.428c-0.619,0.004-1.214-0.105-1.769-0.291
		c0.273-0.109,0.548-0.23,0.812-0.365c1.218,0.336,2.495,0.319,3.632-0.068C156.673,20.158,155.761,20.423,154.785,20.428
		 M158.705,18.255c-1.094,0.937-2.587,1.265-4.055,1.026c0.466-0.315,0.909-0.682,1.314-1.1c0.573-0.592,1.05-1.252,1.417-1.965
		c0.581,0.036,1.132-0.022,1.607-0.188c0.213-0.072,0.41-0.166,0.591-0.28c0.228-0.142,0.401-0.319,0.552-0.511
		c0,0.016,0.004,0.033,0.001,0.047C160.091,16.451,159.583,17.504,158.705,18.255 M172.564,8.676
		c0.128-0.084,0.204-0.176,0.262-0.268c0.276,0.293,0.521,0.611,0.73,0.941c0.072,0.17,0.135,0.343,0.167,0.515
		c0.113,0.614-0.06,1.188-0.5,1.658c-0.455,0.481-1.134,0.808-1.932,0.986c0.179-1.15,0.161-2.33-0.062-3.499
		c0.52-0.022,0.966-0.116,1.274-0.297C172.526,8.701,172.545,8.688,172.564,8.676 M171.236,7.14c0.38,0.224,0.729,0.48,1.055,0.759
		c0.019,0.034,0.027,0.064,0.03,0.091c0.002,0.022,0.007,0.086-0.139,0.168h-0.001c-0.223,0.129-0.607,0.202-1.095,0.214
		c-0.015-0.058-0.021-0.117-0.039-0.175c-0.134-0.487-0.306-0.957-0.506-1.412C170.778,6.892,171.01,7.008,171.236,7.14
		 M170.621,12.623c-1.427,0.158-3.115-0.11-4.617-0.825c-0.385-0.183-0.736-0.388-1.057-0.608c0.062-0.19,0.131-0.379,0.206-0.566
		c0.393-0.986,0.91-1.863,1.516-2.617c0.306,0.147,0.591,0.263,0.797,0.338c0.95,0.353,2.104,0.604,3.105,0.659
		C170.819,10.211,170.829,11.435,170.621,12.623 M168.671,6.201c0.002-0.001,0.004-0.002,0.008-0.003
		c0.016,0.003,0.03,0.006,0.047,0.009c0.013,0.003,0.025,0.006,0.04,0.009c0.054,0.01,0.106,0.024,0.16,0.036
		c0.074,0.016,0.146,0.031,0.222,0.048c0.015,0.003,0.026,0.007,0.042,0.011c0.074,0.018,0.146,0.038,0.22,0.058
		c0.05,0.013,0.099,0.026,0.148,0.041c0.039,0.011,0.076,0.024,0.115,0.037c0,0,0.001,0,0.001,0.002
		c0.313,0.601,0.567,1.238,0.751,1.906c-0.808-0.061-1.776-0.256-2.734-0.611c-0.216-0.08-0.405-0.16-0.582-0.242
		C167.587,6.989,168.11,6.547,168.671,6.201 M165.817,6.266c0.011-0.007,0.02-0.014,0.031-0.02c0.011-0.005,0.024-0.009,0.037-0.014
		c0.592-0.12,1.205-0.168,1.825-0.139c-0.423,0.322-0.821,0.688-1.194,1.1c-0.551-0.329-0.792-0.624-0.808-0.779
		C165.707,6.394,165.702,6.34,165.817,6.266 M163.66,7.187c0.023-0.024,0.051-0.047,0.076-0.071c0.051-0.048,0.1-0.098,0.155-0.144
		c0.004-0.004,0.009-0.007,0.014-0.011c0.005-0.002,0.009-0.006,0.014-0.009c0.114-0.064,0.231-0.123,0.354-0.181
		c0.258-0.124,0.522-0.23,0.799-0.322c0,0.006,0,0.016,0,0.022c0.043,0.479,0.502,0.896,1.029,1.224
		c-0.615,0.783-1.145,1.685-1.543,2.691c-0.053,0.129-0.098,0.26-0.144,0.39c-0.682-0.592-1.129-1.261-1.254-1.93
		C163.044,8.231,163.218,7.658,163.66,7.187 M161.135,10.864c-0.067,0.254-0.128,0.512-0.164,0.775
		c0.037-0.277,0.101-0.548,0.172-0.817c0.259-0.957,0.723-1.844,1.356-2.6c-0.003,0.013-0.004,0.026-0.005,0.041
		c-0.02,0.228-0.012,0.462,0.033,0.701c0.165,0.875,0.768,1.735,1.676,2.462c-0.515,1.768-0.584,3.574-0.271,5.202
		c-1.415-0.96-2.406-2.346-2.737-3.875C161.057,12.118,161.043,11.481,161.135,10.864 M161.215,14.589
		c0.62,1.142,1.578,2.138,2.789,2.85c0.047,0.027,0.097,0.05,0.145,0.076c0.107,0.374,0.242,0.732,0.395,1.079
		C162.994,17.779,161.768,16.375,161.215,14.589 M164.678,17.072c-0.414-1.601-0.413-3.437,0.074-5.247
		c0.062,0.04,0.123,0.08,0.187,0.118c0.25,0.155,0.51,0.302,0.789,0.435c1.529,0.729,3.255,1.015,4.762,0.885
		c-0.21,0.849-0.538,1.674-0.984,2.455c-0.478,0.836-1.062,1.572-1.729,2.205C166.724,17.864,165.664,17.585,164.678,17.072
		 M166.108,19.193c-0.226-0.055-0.445-0.119-0.661-0.195c-0.195-0.342-0.363-0.705-0.506-1.09c0.701,0.301,1.43,0.498,2.163,0.596
		C166.783,18.753,166.452,18.984,166.108,19.193 M171.824,17.98c-0.697,0.537-1.509,0.942-2.413,1.182
		c-0.792,0.207-1.588,0.256-2.356,0.184c0.335-0.236,0.656-0.494,0.967-0.771c1.57,0.035,3.106-0.374,4.354-1.195
		c0.136-0.089,0.266-0.186,0.394-0.283c0.003-0.003,0.007-0.005,0.01-0.008C172.49,17.413,172.171,17.712,171.824,17.98
		 M168.677,17.926c0.521-0.565,0.988-1.195,1.387-1.89c0.517-0.905,0.878-1.869,1.1-2.858c0.739-0.132,1.405-0.375,1.938-0.726
		c0.22-0.145,0.417-0.309,0.588-0.489c0.263-0.28,0.45-0.587,0.565-0.915c0.006-0.01,0.011-0.02,0.014-0.03
		c0.164,0.68,0.221,1.361,0.178,2.026c-0.011,0.085-0.021,0.169-0.037,0.254c-0.13,0.736-0.416,1.442-0.861,2.075
		C172.458,16.924,170.635,17.805,168.677,17.926 M188.072,10.095c0.018-0.025,0.033-0.05,0.049-0.074
		c0.146-0.238,0.188-0.449,0.18-0.625c0.209,0.078,0.413,0.164,0.613,0.255c0.148,0.067,0.293,0.137,0.438,0.21
		c0.232,0.12,0.464,0.246,0.685,0.385c0.106,0.095,0.207,0.194,0.301,0.296c0.037,0.039,0.068,0.083,0.104,0.123
		c0.046,0.056,0.096,0.109,0.139,0.167c0.55,0.759,0.686,1.647,0.385,2.569c-0.312,0.973-1.062,1.876-2.088,2.636
		c-0.478-1.702-1.271-3.31-2.354-4.755C187.238,10.917,187.789,10.51,188.072,10.095 M181.698,18.887
		c2.468,0.004,4.913-0.711,6.775-1.842c0.275,1.294,0.372,2.637,0.267,3.992c-0.107,1.408-0.425,2.75-0.915,4.004
		c-1.438,0.592-3.041,0.893-4.685,0.82c-1.583-1.877-2.742-4.359-3.205-7.111C180.494,18.835,181.083,18.885,181.698,18.887
		 M179.839,18.098c-0.041-0.321-0.072-0.644-0.095-0.971c-0.101-1.564,0.039-3.065,0.383-4.449c0.413,0.009,0.856-0.003,1.335-0.045
		c1.614-0.142,3.226-0.548,4.477-1.081c1.119,1.467,1.923,3.116,2.385,4.861c-1.774,1.125-4.184,1.847-6.623,1.842
		C181.046,18.253,180.421,18.199,179.839,18.098 M187.482,9.127c0.065,0.052,0.119,0.104,0.148,0.159
		c0.029,0.048,0.11,0.18-0.081,0.454c-0.239,0.354-0.754,0.711-1.429,1.037c-0.078-0.095-0.149-0.191-0.229-0.284
		c-0.547-0.636-1.229-1.471-1.859-1.996C184.524,8.474,186.856,8.819,187.482,9.127 M183.09,8.505
		c0.802,0.603,1.655,1.622,2.322,2.398c0.039,0.045,0.074,0.092,0.112,0.137c-1.173,0.47-2.669,0.839-4.118,0.966
		c-0.409,0.035-0.773,0.045-1.115,0.043c0.284-0.934,1.021-2.984,1.225-3.22C181.564,8.815,182.167,8.564,183.09,8.505
		 M177.963,11.025c0.013-0.015,0.021-0.031,0.031-0.048c0.01-0.015,0.025-0.03,0.037-0.044c0,0,1.396-1.283,2.6-1.775
		c-0.438,0.797-0.719,1.952-0.981,2.865c-0.984-0.08-1.577-0.323-1.734-0.591C177.886,11.385,177.817,11.267,177.963,11.025
		 M175.622,14.037c0.008-0.047,0.013-0.093,0.021-0.141c0.351-0.725,0.796-1.412,1.334-2.043c0.102-0.1,0.203-0.199,0.308-0.296
		c0.003,0.008,0.006,0.011,0.009,0.018c0.021,0.067,0.048,0.129,0.074,0.175c0.284,0.483,1.041,0.788,2.122,0.892
		c-0.341,1.415-0.477,2.94-0.375,4.527c0.018,0.265,0.043,0.528,0.073,0.79c-1.366-0.345-2.451-0.977-3.069-1.83
		C175.665,15.502,175.498,14.786,175.622,14.037 M175.975,22.363c-0.352-0.457-0.641-0.941-0.875-1.447
		c0.006,0.021,0.011,0.041,0.017,0.062c-0.007-0.023-0.014-0.047-0.021-0.07c-0.551-1.811-0.551-3.737-0.024-5.53
		c0.006,0.02,0.013,0.038,0.019,0.058c0.108,0.371,0.276,0.729,0.521,1.065c0.74,1.02,2.043,1.759,3.667,2.125
		c0.422,2.726,1.503,5.209,3.006,7.164C179.702,25.473,177.418,24.238,175.975,22.363 M176.96,24.369
		c-0.097-0.117-0.189-0.232-0.28-0.354c0.026,0.023,0.058,0.051,0.088,0.074c1.556,1.326,3.591,2.166,5.81,2.365
		c0.089,0.008,0.177,0.008,0.266,0.016c0.418,0.475,0.862,0.908,1.329,1.303c0.017,0.015,0.032,0.021,0.048,0.037
		C181.512,27.77,178.839,26.604,176.96,24.369 M186.543,27.527c-0.461,0.104-0.927,0.178-1.396,0.215
		c-0.504-0.367-0.988-0.781-1.441-1.248c1.312-0.012,2.59-0.242,3.78-0.66C187.212,26.421,186.894,26.986,186.543,27.527
		 M193.156,22.121c-0.576,1.271-1.438,2.438-2.579,3.396c-0.957,0.803-2.022,1.385-3.143,1.76c0.33-0.568,0.626-1.158,0.88-1.771
		c2.043-0.898,3.77-2.354,4.869-4.164c0.24-0.396,0.443-0.814,0.624-1.244c0.004-0.012,0.008-0.021,0.013-0.031
		C193.676,20.77,193.456,21.46,193.156,22.121 M193.733,18.141c-0.483,2.819-2.458,5.186-5.104,6.528
		c0.39-1.135,0.646-2.334,0.739-3.584c0.115-1.5-0.002-2.981-0.332-4.407c0.885-0.619,1.604-1.338,2.075-2.117
		c0.188-0.314,0.342-0.637,0.448-0.966c0.188-0.585,0.227-1.158,0.13-1.707c-0.004-0.018-0.008-0.036-0.012-0.053
		c0.021,0.025,0.045,0.049,0.065,0.075c1.048,1.247,1.729,2.681,2.05,4.168c0.005,0.04,0.007,0.081,0.012,0.122
		C193.862,16.838,193.845,17.488,193.733,18.141"/>
	<path fill="#BFBEBE" d="M149.365,24.75c-0.062,0-0.127-0.016-0.187-0.045c-0.2-0.104-0.279-0.35-0.178-0.551l1.773-3.387
		c0.103-0.201,0.35-0.277,0.549-0.177c0.199,0.104,0.279,0.351,0.176,0.55l-1.771,3.389C149.656,24.669,149.513,24.75,149.365,24.75
		"/>
	<path fill="#BFBEBE" d="M157.908,9.52c-0.062,0-0.128-0.015-0.188-0.046c-0.2-0.104-0.277-0.351-0.175-0.55l1.646-3.087
		c0.104-0.2,0.351-0.278,0.55-0.173c0.199,0.104,0.277,0.351,0.173,0.55l-1.643,3.088C158.198,9.44,158.055,9.52,157.908,9.52"/>
	<path fill="#739FC3" d="M164.723,24.453c-0.032,0-0.065-0.006-0.1-0.014c-0.219-0.055-0.352-0.273-0.299-0.494l0.845-3.447
		c0.055-0.219,0.275-0.352,0.493-0.297c0.22,0.053,0.354,0.273,0.298,0.492l-0.843,3.447
		C165.073,24.328,164.906,24.453,164.723,24.453"/>
	<path fill="#739FC3" d="M169.504,5.07c-0.03,0-0.063-0.005-0.098-0.012c-0.22-0.054-0.353-0.276-0.298-0.495l0.523-2.133
		c0.057-0.219,0.276-0.352,0.495-0.298c0.221,0.054,0.354,0.275,0.298,0.494L169.9,4.76C169.854,4.946,169.688,5.07,169.504,5.07"/>
	<path fill="#D26A35" d="M187.039,32.746c-0.189,0-0.36-0.137-0.398-0.332l-0.598-3.09c-0.042-0.223,0.104-0.436,0.323-0.479
		c0.221-0.041,0.435,0.102,0.479,0.321l0.596,3.093c0.042,0.223-0.104,0.434-0.323,0.479
		C187.091,32.744,187.065,32.746,187.039,32.746"/>
	<path fill="#D26A35" d="M181.976,7.602c-0.193,0-0.365-0.138-0.4-0.334l-0.675-3.431c-0.042-0.222,0.104-0.435,0.326-0.475
		c0.221-0.043,0.434,0.105,0.476,0.326l0.675,3.431c0.041,0.221-0.104,0.434-0.327,0.476C182.027,7.599,181.999,7.602,181.976,7.602
		"/>
</g>
<g id="Symbols">
	<g id="op-logowtxt-dark">
		<g id="op-logo-dark">
			<path fill="#303E4D" d="M292.57,28.089v-2.733c0.836,0.301,1.735,0.465,2.675,0.465c4.362,0,7.897-3.534,7.897-7.897
				c0-4.362-3.535-7.898-7.897-7.898c-4.363,0-7.897,3.536-7.897,7.898c0,0.041,0,0.085,0,0.125l0,0v6.81
				c-1.626-1.852-2.61-4.276-2.61-6.935c0-5.804,4.705-10.509,10.509-10.509c5.805,0,10.51,4.705,10.51,10.509
				s-4.705,10.509-10.51,10.509C294.321,28.432,293.425,28.312,292.57,28.089z M295.245,20.598c-1.478,0-2.675-1.197-2.675-2.676
				c0-1.478,1.197-2.674,2.675-2.674c1.479,0,2.675,1.197,2.675,2.674C297.92,19.398,296.723,20.598,295.245,20.598z"/>
		</g>
		<path id="op-text-dark" fill="#303E4D" d="M314.741,12.822c3.037,0,5.449,2.332,5.449,5.297c0,2.966-2.412,5.328-5.449,5.328
			c-3.053,0-5.464-2.362-5.464-5.328C309.277,15.139,311.688,12.822,314.741,12.822z M314.741,13.965
			c-2.322,0-4.257,1.836-4.257,4.154c0,2.316,1.935,4.169,4.257,4.169c2.321,0,4.229-1.853,4.229-4.169
			C318.969,15.801,317.062,13.965,314.741,13.965z M326.458,15.41c2.218,0,3.766,1.656,3.766,4.033c0,2.348-1.519,3.988-3.734,3.988
			c-1.399,0-2.474-0.647-3.053-1.744v4.617h-1.161v-10.85h1.161v1.716C324.015,16.057,325.089,15.41,326.458,15.41z M326.249,22.363
			c1.637,0,2.799-1.235,2.799-2.95c0-1.7-1.162-2.949-2.799-2.949c-1.652,0-2.812,1.235-2.812,2.949
			C323.436,21.145,324.596,22.363,326.249,22.363z M335.36,15.425c2.53-0.015,3.781,1.761,3.663,4.456h-6.403
			c0.21,1.551,1.326,2.527,2.844,2.527c0.97,0,1.817-0.348,2.428-0.993l0.641,0.69c-0.744,0.846-1.846,1.326-3.155,1.326
			c-2.308,0-3.899-1.642-3.899-4.004C331.475,17.066,333.084,15.425,335.36,15.425z M332.62,18.916h5.36
			c-0.075-1.52-1.088-2.482-2.62-2.482C333.871,16.433,332.8,17.412,332.62,18.916z M345.216,15.41
			c-1.43,0.015-2.485,0.587-3.036,1.791v-1.746h-1.161v7.93h1.161v-4.258c0.134-1.506,1.085-2.528,2.636-2.544
			c1.384,0,2.218,0.828,2.218,2.229v4.572h1.161v-4.89C348.193,16.583,347.093,15.41,345.216,15.41z M350.74,12.851h4.151
			c2.621,0,4.124,1.31,4.124,3.598c0,2.376-1.503,3.763-4.124,3.763h-2.396v3.175h-1.757L350.74,12.851L350.74,12.851z
			 M352.497,14.446v4.171h2.322c1.605,0,2.515-0.693,2.515-2.123c0-1.385-0.908-2.048-2.515-2.048H352.497z M362.441,23.385V12.219
			h-1.714v11.167h1.714V23.385z M369.796,23.385v-0.979c-0.565,0.707-1.474,1.054-2.621,1.054c-1.712,0-2.783-1.065-2.783-2.481
			c0-1.459,1.088-2.393,2.992-2.408h2.396v-0.24c0-1.009-0.641-1.609-1.892-1.609c-0.76,0-1.549,0.271-2.338,0.812l-0.697-1.204
			c1.102-0.662,1.904-1.008,3.407-1.008c2.039,0,3.188,1.053,3.202,2.814l0.014,5.252h-1.681V23.385z M367.532,22.094
			c1.222,0,2.159-0.646,2.248-1.521v-0.737h-2.145c-1.115,0-1.639,0.304-1.639,1.069C365.998,21.625,366.579,22.094,367.532,22.094z
			 M378.4,15.319c-1.339,0-2.354,0.481-2.918,1.596v-1.536h-1.714v8.006h1.714v-4.258c0.118-1.249,0.938-2.167,2.247-2.182
			c1.19,0,1.906,0.736,1.906,1.939v4.5h1.711v-4.979C381.347,16.494,380.246,15.319,378.4,15.319z M386.901,15.319
			c2.782,0,3.916,1.836,3.707,4.726h-5.984c0.269,1.234,1.205,2.002,2.456,2.002c0.863,0,1.652-0.331,2.232-0.934l0.906,0.98
			c-0.772,0.856-1.903,1.354-3.273,1.354c-2.441,0-4.049-1.641-4.049-4.049C382.896,16.975,384.55,15.335,386.901,15.319z
			 M384.593,18.781h4.527c-0.062-1.294-0.908-2.076-2.204-2.076C385.665,16.705,384.787,17.501,384.593,18.781z M396.443,21.55
			c-0.462,0.228-0.834,0.349-1.191,0.349c-0.534,0-0.847-0.258-0.847-1.086v-3.837h2.336v-1.294h-2.336v-2.196h-1.699v2.196h-1.115
			v1.294h1.115v4.152c0,1.643,1.028,2.333,2.22,2.333c0.67,0,1.325-0.211,1.949-0.586L396.443,21.55z M403.203,23.385v-0.979
			c-0.564,0.707-1.475,1.054-2.621,1.054c-1.712,0-2.782-1.065-2.782-2.481c0-1.459,1.085-2.393,2.991-2.408h2.397v-0.24
			c0-1.009-0.642-1.609-1.892-1.609c-0.76,0-1.548,0.271-2.338,0.812l-0.7-1.204c1.103-0.662,1.906-1.008,3.408-1.008
			c2.041,0,3.188,1.053,3.202,2.814l0.015,5.252h-1.681V23.385z M400.94,22.094c1.221,0,2.158-0.646,2.248-1.521v-0.737h-2.146
			c-1.115,0-1.637,0.304-1.637,1.069C399.407,21.625,399.987,22.094,400.94,22.094z M408.891,15.379h-1.713v8.006h1.713v-4.183
			c0.133-1.369,1.146-2.317,2.738-2.228v-1.656c-1.251,0-2.204,0.573-2.738,1.656V15.379z M419.758,15.379h-1.712l-2.204,6.066
			l-2.365-6.066h-1.772l3.275,7.887l-0.269,0.604c-0.269,0.602-0.685,0.888-1.207,0.888c-0.355,0-0.652-0.12-1.024-0.391
			l-0.73,1.338c0.551,0.468,1.116,0.677,1.832,0.677c1.191,0,2.084-0.631,2.576-1.895L419.758,15.379z"/>
	</g>
</g>
</svg>
